:FULLY-SPECIFIED
:FORCE-ALL-JOINTS-BE-3DOF
:DEGREES
243
root 9.40278 16.3748 -1.55043 9.81479 -5.66372 -2.17993
lfemur -44.9086 9.24351 -23.2381
ltibia 41.6786 -0 0
lfoot -8.13529 5.71185 -0.0293444
ltoes -1.52751 0 0
rfemur 11.6449 1.55705 20.6452
rtibia 28.882 -0 0
rfoot 9.03264 5.56797 -0.183159
rtoes -14.6294 0 0
lowerback -6.41241 2.28332 -0.341682
upperback -3.03464 3.03483 1.82988
thorax 0.328505 1.53744 2.27621
lowerneck -18.2031 -5.9815 -14.0854
upperneck 17.0962 -7.55434 14.754
head 9.53063 -2.95829 6.4772
lclavicle -1.84245e-14 -5.70811e-15 2.70043e-32
lhumerus -47.275 -4.55697 88.6165
lradius 20.1953 -0 0
lwrist -6.67603 0 0
lhand -7.35807 -22.6024 -0.00303957
lfingers 7.12502 -0 0
lthumb 18.5267 6.53989 -0.00199092
rclavicle -1.84245e-14 -5.70811e-15 2.70043e-32
rhumerus -46.0828 8.48778 -86.6139
rradius 41.3453 -0 0
rwrist -22.2347 0 0
rhand -29.4015 -22.9877 0.0146395
rfingers 7.12502 -0 0
rthumb -2.7394 -52.9476 0.0139631
244
root 9.39832 16.3705 -1.59525 9.81482 -5.7341 -2.08514
lfemur -44.5647 9.35636 -23.4201
ltibia 41.8833 -0 0
lfoot -8.07509 5.60016 -0.020611
ltoes -1.26403 0 0
rfemur 11.3573 1.50331 20.3986
rtibia 29.3914 -0 0
rfoot 9.28332 5.42234 -0.145702
rtoes -14.8204 0 0
lowerback -6.40684 2.23215 -0.427807
upperback -3.05462 2.97323 1.80431
thorax 0.308511 1.50673 2.29221
lowerneck -18.2718 -5.95081 -14.0553
upperneck 17.1887 -7.5123 14.7161
head 9.56611 -2.93757 6.46774
lclavicle -1.89132e-14 -5.70327e-15 4.34254e-32
lhumerus -46.9376 -4.57547 88.499
lradius 20.1069 -0 0
lwrist -6.89237 0 0
lhand -7.32491 -22.5838 -0.00253739
lfingers 7.12502 -0 0
lthumb 18.5586 6.55477 -0.00165183
rclavicle -1.89132e-14 -5.70327e-15 4.34254e-32
rhumerus -46.2969 8.41867 -86.6804
rradius 41.1078 -0 0
rwrist -22.1383 0 0
rhand -29.3249 -22.8569 0.0105046
rfingers 7.12502 -0 0
rthumb -2.6655 -52.8184 0.0100194
245
root 9.38911 16.3663 -1.66773 9.80633 -5.78976 -1.99012
lfemur -44.1946 9.44686 -23.5938
ltibia 42.0242 -0 0
lfoot -8.04487 5.49644 -0.0127027
ltoes -1.03151 0 0
rfemur 11.0222 1.4541 20.1672
rtibia 29.881 -0 0
rfoot 9.45777 5.26008 -0.10263
rtoes -15.0085 0 0
lowerback -6.40047 2.17689 -0.512362
upperback -3.06737 2.90596 1.78186
thorax 0.296103 1.47309 2.31011
lowerneck -18.3399 -5.91896 -14.0232
upperneck 17.283 -7.46878 14.6754
head 9.60183 -2.91638 6.45731
lclavicle -1.92546e-14 -5.67834e-15 4.49691e-32
lhumerus -46.5729 -4.61528 88.3946
lradius 20.0371 -0 0
lwrist -7.07022 0 0
lhand -7.3136 -22.5719 -0.00187095
lfingers 7.12502 -0 0
lthumb 18.5694 6.56468 -0.00121205
rclavicle -1.92546e-14 -5.67834e-15 4.49691e-32
rhumerus -46.4901 8.35463 -86.734
rradius 40.8968 -0 0
rwrist -22.0548 0 0
rhand -29.2574 -22.736 0.00663578
rfingers 7.12502 -0 0
rthumb -2.60031 -52.6989 0.00632947
246
root 9.37495 16.3624 -1.76904 9.78897 -5.83008 -1.895
lfemur -43.7978 9.51364 -23.7588
ltibia 42.0975 -0 0
lfoot -8.04643 5.4011 -0.00578103
ltoes -0.831718 0 0
rfemur 10.6382 1.40965 19.952
rtibia 30.3493 -0 0
rfoot 9.55203 5.08052 -0.0540091
rtoes -15.1936 0 0
lowerback -6.39329 2.11746 -0.595155
upperback -3.07251 2.83289 1.76268
thorax 0.291686 1.43645 2.32997
lowerneck -18.4072 -5.88591 -13.9892
upperneck 17.3791 -7.42372 14.6318
head 9.63777 -2.8947 6.44588
lclavicle -1.94405e-14 -5.63276e-15 3.07358e-32
lhumerus -46.1801 -4.67745 88.3038
lradius 19.9866 -0 0
lwrist -7.20749 0 0
lhand -7.32545 -22.567 -0.00102686
lfingers 7.12502 -0 0
lthumb 18.5579 6.56929 -0.000662509
rclavicle -1.94405e-14 -5.63276e-15 3.07358e-32
rhumerus -46.6612 8.29608 -86.7741
rradius 40.714 -0 0
rwrist -21.985 0 0
rhand -29.1995 -22.6255 0.00310934
rfingers 7.12502 -0 0
rthumb -2.5444 -52.5896 0.00296592
247
root 9.3556 16.3586 -1.90036 9.76238 -5.85443 -1.79992
lfemur -43.374 9.55533 -23.9149
ltibia 42.0992 0 0
lfoot -8.08158 5.31458 0
ltoes -0.666402 0 0
rfemur 10.2037 1.37025 19.7541
rtibia 30.7944 0 0
rfoot 9.56213 4.88299 0
rtoes -15.3751 0 0
lowerback -6.38529 2.05378 -0.675997
upperback -3.06967 2.75391 1.74692
thorax 0.295667 1.39674 2.35183
lowerneck -18.4737 -5.85161 -13.953
upperneck 17.477 -7.37709 14.5853
head 9.67392 -2.87252 6.43342
lclavicle -1.94623e-14 -5.56597e-15 0
lhumerus -45.758 -4.76304 88.2269
lradius 19.9566 0 0
lwrist -7.30207 0 0
lhand -7.36173 -22.5698 0
lfingers 7.12502 0 0
lthumb 18.5229 6.56827 0
rclavicle -1.94623e-14 -5.56597e-15 0
rhumerus -46.8088 8.24347 -86.8
rradius 40.5611 0 0
rwrist -21.9297 0 0
rhand -29.1518 -22.5261 0
rfingers 7.12502 0 0
rthumb -2.49833 -52.4912 0
